<svg width="17" height="21" viewBox="0 0 17 21" fill="none" xmlns="http://www.w3.org/2000/svg">
<path d="M8.385 0.249986C9.43427 0.22787 10.4739 0.454675 11.4186 0.911821C12.3633 1.36897 13.1862 2.04344 13.82 2.87998C14.8773 4.2559 15.4648 5.93501 15.496 7.66998C15.496 8.09498 15.483 8.40298 15.473 8.64998C15.441 9.42198 15.441 9.42198 16.24 11.18L16.256 11.218C16.4707 11.7098 16.5568 12.2481 16.5062 12.7823C16.4557 13.3166 16.2701 13.8292 15.967 14.272C15.0729 15.3557 13.8567 16.1263 12.495 16.472C9.81899 17.3096 6.951 17.3096 4.27501 16.472C2.91323 16.1264 1.69703 15.3558 0.802996 14.272C0.500037 13.8291 0.314649 13.3164 0.26427 12.7822C0.21389 12.248 0.30018 11.7097 0.515002 11.218L0.530993 11.18C1.33099 9.42298 1.33098 9.42298 1.29698 8.64998C1.28698 8.40298 1.274 8.09498 1.274 7.66898C1.30488 5.93412 1.89203 4.25503 2.94899 2.87898C3.58297 2.04249 4.40614 1.36811 5.35103 0.911134C6.29592 0.454159 7.33564 0.227594 8.385 0.249986ZM14.865 11.78C13.995 9.86299 13.93 9.68698 13.975 8.58898C13.985 8.35498 13.996 8.06498 13.996 7.66998C13.996 5.73798 12.624 1.74999 8.385 1.74999C4.146 1.74999 2.774 5.73798 2.774 7.66998C2.774 8.06398 2.78601 8.35498 2.79601 8.58898C2.84101 9.68898 2.77599 9.86299 1.90599 11.78C1.78303 12.0422 1.73089 12.332 1.75475 12.6206C1.77861 12.9092 1.87765 13.1865 2.04201 13.425C2.97201 14.785 5.998 15.598 8.385 15.598C10.772 15.598 13.798 14.785 14.729 13.425C14.8927 13.1862 14.9911 12.9087 15.0142 12.6201C15.0374 12.3315 14.9846 12.0418 14.861 11.78H14.865Z" fill="#9397A0"/>
<path d="M8.37897 20.839C7.83348 20.8323 7.2957 20.7093 6.80161 20.478C6.30752 20.2468 5.86852 19.9126 5.51398 19.498C5.38138 19.3496 5.31316 19.1546 5.32432 18.9559C5.33548 18.7572 5.4251 18.5711 5.57349 18.4385C5.72188 18.3059 5.91685 18.2377 6.11555 18.2488C6.31424 18.26 6.50036 18.3496 6.63297 18.498C6.84771 18.7542 7.1146 18.9618 7.41584 19.1068C7.71708 19.2518 8.04575 19.331 8.37998 19.339C8.71515 19.3314 9.04485 19.2524 9.34711 19.1074C9.64938 18.9624 9.91727 18.7546 10.133 18.498C10.1984 18.4239 10.2779 18.3635 10.3668 18.3203C10.4557 18.2771 10.5523 18.2518 10.651 18.246C10.7497 18.2403 10.8486 18.254 10.9419 18.2866C11.0352 18.3191 11.1212 18.3698 11.1949 18.4357C11.2686 18.5016 11.3285 18.5815 11.3712 18.6706C11.4139 18.7598 11.4386 18.8565 11.4439 18.9552C11.4491 19.0539 11.4347 19.1527 11.4016 19.2459C11.3685 19.339 11.3173 19.4247 11.251 19.498C10.8953 19.9131 10.4551 20.2475 9.95985 20.4787C9.46455 20.71 8.92557 20.8328 8.37897 20.839Z" fill="#9397A0"/>
</svg>
