<svg width="17" height="17" viewBox="0 0 17 17" fill="none" xmlns="http://www.w3.org/2000/svg">
<path d="M8.34302 0.400024C9.96344 0.400024 11.5475 0.880534 12.8948 1.78079C14.2421 2.68105 15.2923 3.96063 15.9124 5.4577C16.5325 6.95478 16.6947 8.60212 16.3786 10.1914C16.0625 11.7807 15.2822 13.2405 14.1364 14.3864C12.9905 15.5322 11.5307 16.3125 9.94141 16.6286C8.35212 16.9447 6.70478 16.7825 5.2077 16.1624C3.71063 15.5423 2.43105 14.4921 1.53079 13.1448C0.630534 11.7975 0.150024 10.2134 0.150024 8.59302C0.151878 6.42067 1.01567 4.33784 2.55176 2.80176C4.08784 1.26567 6.17067 0.401878 8.34302 0.400024ZM8.34302 15.587C9.7261 15.587 11.0781 15.1769 12.2281 14.4085C13.3781 13.6401 14.2744 12.5479 14.8037 11.2701C15.333 9.99234 15.4715 8.58628 15.2017 7.22977C14.9318 5.87326 14.2658 4.62722 13.2878 3.64923C12.3099 2.67124 11.0638 2.00524 9.70731 1.73541C8.3508 1.46559 6.94473 1.60405 5.66693 2.13333C4.38913 2.66261 3.29697 3.55893 2.52856 4.70892C1.76016 5.85892 1.35004 7.21094 1.35004 8.59402C1.35189 10.4481 2.08923 12.2257 3.40027 13.5368C4.71131 14.8478 6.48893 15.5852 8.34302 15.587Z" fill="#9397A0"/>
<path d="M11.7841 9.823H11.7741L8.05508 9.76199C7.89769 9.75937 7.74764 9.695 7.63727 9.58276C7.5269 9.47052 7.46507 9.31943 7.46509 9.16202V5.18301C7.46509 5.02388 7.52829 4.87125 7.64081 4.75873C7.75333 4.64621 7.90596 4.58301 8.06509 4.58301C8.22422 4.58301 8.37683 4.64621 8.48935 4.75873C8.60187 4.87125 8.66507 5.02388 8.66507 5.18301V8.57199L11.7931 8.62302C11.9522 8.62434 12.1043 8.68882 12.2159 8.80228C12.3275 8.91574 12.3894 9.06887 12.3881 9.228C12.3868 9.38713 12.3223 9.53923 12.2088 9.65082C12.0953 9.7624 11.9422 9.82432 11.7831 9.823H11.7841Z" fill="#9397A0"/>
</svg>
