<svg width="86" height="79" viewBox="0 0 86 79" fill="none" xmlns="http://www.w3.org/2000/svg">
<path d="M23.8465 2.22773C16.6773 2.2305 9.94241 3.96048 6.83431 7.03978C1.68573 12.1405 7.04226 20.4312 3.01806 32.9714C1.57135 37.4799 15.4776 48.0823 23.5418 56.3666C23.0528 55.1453 22.985 53.8153 23.3477 52.5574V52.4512L23.4266 52.2295C26.3751 43.9891 25.5578 39.6247 23.2166 32.8941C22.3442 30.3868 22.5071 27.9982 23.5156 25.9797C24.5241 23.9612 26.3039 22.3417 28.4917 21.0711C32.8673 18.5298 38.9385 17.2734 45.0052 17.1124C45.7609 17.0919 46.517 17.0887 47.2728 17.1029C51.2083 17.1788 55.0514 17.7313 58.3429 18.8341C57.3701 17.9021 56.2697 16.9635 55.0938 16.0228C48.0643 12.2961 28.9734 13.185 20.1512 18.5108C25.7051 11.6869 39.429 8.2973 51.1465 13.0476C49.7596 12.0504 48.335 11.0631 46.9263 10.0966C40.0206 6.27771 20.7215 7.13931 11.8368 12.5027C17.2445 5.85864 30.4023 2.46612 41.9082 6.67796C37.0786 3.62103 30.2886 2.2251 23.8465 2.22773ZM46.1494 19.9765C45.7975 19.9774 45.4468 19.9817 45.0946 19.9912C39.4559 20.1408 33.8104 21.3976 30.1714 23.511C28.3519 24.5676 27.0517 25.8075 26.3659 27.1802C25.6797 28.5531 25.5356 30.0831 26.208 32.0166C28.5915 38.8674 29.4921 44.3218 26.4863 52.8806V52.9141L26.4077 53.1312C26.1899 53.7391 26.2056 54.967 26.7117 55.8268C27.2183 56.6862 28.0051 57.3501 30.0291 57.3501C31.2553 57.3501 32.8824 57.347 34.3913 57.3455C38.059 54.7954 42.3446 51.9169 45.5402 49.6353C47.24 48.4219 49.3655 48.151 51.2721 48.1985C53.1786 48.2463 54.868 48.6049 56.0698 49.134C59.3825 50.5912 62.2976 51.5464 65.3081 52.2392C65.2841 52.0895 65.251 51.9604 65.2135 51.8581C62.4887 44.4558 61.1638 37.9127 63.8016 30.6086C64.4869 28.7111 64.3441 27.269 63.686 26.0038C63.0279 24.7389 61.7685 23.6076 59.9697 22.6721C56.822 21.0354 52.1105 20.0953 47.2041 19.9864C46.8525 19.9789 46.5009 19.9758 46.1493 19.9771L46.1494 19.9765ZM50.9103 51.077C50.8179 51.077 50.7282 51.0793 50.6374 51.0821C49.3655 51.1201 48.1778 51.4038 47.4668 51.9115C43.3734 54.8339 37.6243 58.6558 33.6463 61.5067C32.8619 62.0687 32.6076 62.5134 32.5438 62.7457C32.4799 62.9787 32.5025 63.0798 32.6803 63.3102C33.0358 63.7707 34.3248 64.3845 35.604 64.3757C44.7959 64.3132 51.9625 66.3347 58.0119 69.0093C61.2923 70.4597 65.3098 70.5093 69.2188 69.6362C73.1274 68.7629 76.8845 66.9653 79.4699 64.9783C82.0553 62.9912 83.2206 60.8724 83.0078 59.7417C82.9013 59.1764 82.5741 58.6632 81.5381 58.0975C80.5017 57.5322 78.7558 57.0152 76.2155 56.7621C67.9192 55.9362 62.114 54.9874 54.7155 51.733C54.1565 51.487 52.6589 51.1189 51.1881 51.0823C51.0955 51.0796 51.0027 51.078 50.91 51.0773L50.9103 51.077ZM83.8742 65.0409C83.1835 65.7877 82.3719 66.5058 81.4857 67.1869C78.4799 69.4972 74.3747 71.4524 69.9642 72.4376C65.554 73.4231 60.7965 73.4402 56.6527 71.6084C50.9142 69.0711 44.3154 67.2001 35.6305 67.2591C34.2935 67.2683 32.9803 66.9983 31.8827 66.4249C32.2035 68.9338 33.8452 71.0793 36.8115 71.0585C45.4152 70.9983 50.4713 72.9394 56.6004 74.9981C66.2385 78.2353 83.8742 73.2094 83.8742 67.4183V65.0407V65.0409Z" fill="#222222"/>
</svg>
