<svg width="13" height="14" viewBox="0 0 13 14" fill="none" xmlns="http://www.w3.org/2000/svg">
<g clip-path="url(#clip0_15_6)">
<path d="M12.0138 6.05609L11.9564 5.79387H6.66402V8.20613H9.82617C9.49787 9.88504 7.97443 10.7688 6.73004 10.7688C5.82461 10.7688 4.87018 10.3586 4.23846 9.69938C3.90516 9.34599 3.63986 8.92528 3.45774 8.46134C3.27563 7.99739 3.18027 7.49931 3.17713 6.99563C3.17713 5.97953 3.60115 4.96316 4.21814 4.29461C4.83514 3.62605 5.76697 3.25199 6.69348 3.25199C7.75455 3.25199 8.515 3.85875 8.79938 4.13547L10.3911 2.43031C9.92418 1.98844 8.64145 0.875 6.64219 0.875C5.09971 0.875 3.6207 1.51129 2.53957 2.67176C1.47266 3.81445 0.92041 5.46684 0.92041 7C0.92041 8.53316 1.44295 10.103 2.47686 11.2547C3.5816 12.483 5.14617 13.125 6.75721 13.125C8.22301 13.125 9.61238 12.5065 10.6026 11.3843C11.5761 10.2796 12.0796 8.75109 12.0796 7.14875C12.0796 6.47418 12.0166 6.07359 12.0138 6.05609Z" fill="#222222"/>
</g>
<defs>
<clipPath id="clip0_15_6">
<rect width="13" height="14" fill="white"/>
</clipPath>
</defs>
</svg>
