<svg width="18" height="17" viewBox="0 0 18 17" fill="none" xmlns="http://www.w3.org/2000/svg">
<path d="M17.7322 3.49704C17.106 3.75912 16.4332 3.93621 15.726 4.01625C16.4557 3.60385 17.0017 2.95479 17.262 2.19017C16.5764 2.57478 15.826 2.84551 15.0435 2.99058C14.5173 2.45995 13.8203 2.10823 13.0607 1.99004C12.3012 1.87186 11.5216 1.99381 10.8429 2.33697C10.1643 2.68013 9.62458 3.2253 9.30761 3.88783C8.99064 4.55037 8.91415 5.2932 9.08999 6.001C7.70076 5.93512 6.34171 5.5941 5.10106 5.00006C3.86041 4.40602 2.76587 3.57224 1.88849 2.55283C1.58849 3.04158 1.41599 3.60825 1.41599 4.21175C1.41566 4.75504 1.55732 5.29 1.8284 5.76919C2.09949 6.24837 2.49161 6.65694 2.96999 6.95867C2.4152 6.94199 1.87265 6.80041 1.38749 6.54571V6.58821C1.38744 7.35019 1.66652 8.08873 2.17738 8.6785C2.68824 9.26827 3.39942 9.67295 4.19024 9.82388C3.67558 9.95542 3.136 9.9748 2.61224 9.88054C2.83537 10.5362 3.26999 11.1095 3.85527 11.5203C4.44055 11.931 5.14718 12.1587 5.87624 12.1713C4.63862 13.0889 3.11016 13.5866 1.53674 13.5844C1.25803 13.5845 0.979551 13.5691 0.702744 13.5384C2.29985 14.5082 4.159 15.0229 6.05774 15.0209C12.4852 15.0209 15.999 9.99317 15.999 5.63267C15.999 5.491 15.9952 5.34792 15.9885 5.20625C16.672 4.73944 17.2619 4.16138 17.7307 3.49917L17.7322 3.49704Z" fill="#222222"/>
</svg>
